<svg width="284" height="120" viewBox="0 0 284 120" fill="none" xmlns="http://www.w3.org/2000/svg">
<path d="M110.809 89.9915H84.7339V97.933H102.831L102.854 98.3514C100.418 105.263 94.8291 109.253 86.0104 109.253C75.8295 109.253 68.1471 101.125 68.1471 90.8515C68.1471 80.1672 76.1408 71.7375 86.7498 71.7375C94.8758 71.7375 100.667 75.7044 103.951 82.8015L111.431 79.3692C106.808 69.4054 98.0437 63.9199 86.7498 63.9199C71.7042 63.9199 59.9199 75.7509 59.9199 90.8592C59.9199 105.565 71.3851 117.086 86.0182 117.086C93.6538 117.086 99.4214 114.018 103.586 109.229L104.333 115.211H110.817V89.9915H110.809Z" fill="black"/>
<path d="M110.809 46.9986H69.5722V33.897H106.062V26.2963H69.5722V13.1947H110.809V5.39258H61.166V54.8007H110.809V46.9986Z" fill="black"/>
<path d="M41.6594 25.8081H8.89063V5.38477H0.492188V54.8006H8.89063V33.6877H41.6594V54.8006H50.1356V5.38477H41.6594V25.8081Z" fill="black"/>
<path d="M29.517 107.323V73.6589H50.1356V65.7871H0.492188V73.6589H21.1108V107.323H0.492188V115.203H50.1356V107.323H29.517Z" fill="black"/>
<path fill-rule="evenodd" clip-rule="evenodd" d="M171.965 117.07L171.965 5.3457L173.178 5.3457L173.178 117.07L171.965 117.07Z" fill="black"/>
<path d="M198.106 19.138H195.515V9.7121L191.628 19.138H189.437L185.55 9.78796V19.138H183.035V5.69141H186.503L190.561 15.4018L194.524 5.69141H198.106V19.138Z" fill="black"/>
<path d="M209.654 19.138H201.195V5.69141H209.654V8.15692H203.824V11.2293H209.101V13.5621H203.824V16.6724H209.654V19.138Z" fill="black"/>
<path d="M214.951 19.138H212.284V5.69141H214.951V19.138Z" fill="black"/>
<path d="M197.801 67.069H195.953V56.6L191.342 67.069H189.627L185.055 56.6V67.069H183.207V53.6224H185.741L190.504 64.5655L195.305 53.6224H197.801V67.069Z" fill="black"/>
<path d="M202.207 61.569H207.218C207.193 60.8862 206.964 60.3299 206.532 59.9C206.101 59.4575 205.491 59.2362 204.703 59.2362C203.992 59.2362 203.408 59.4701 202.951 59.938C202.493 60.3931 202.246 60.9368 202.207 61.569ZM207.485 63.9397L209.028 64.4707C208.762 65.3178 208.266 66.0132 207.542 66.5569C206.818 67.088 205.942 67.3535 204.913 67.3535C203.63 67.3535 202.538 66.9173 201.636 66.0448C200.747 65.1598 200.302 63.9713 200.302 62.4793C200.302 61.0885 200.734 59.938 201.598 59.0276C202.461 58.1173 203.49 57.6621 204.684 57.6621C206.069 57.6621 207.148 58.0983 207.923 58.9707C208.698 59.8305 209.085 60.9874 209.085 62.4414C209.085 62.669 209.073 62.8586 209.047 63.0104H202.15C202.163 63.8196 202.43 64.4834 202.951 65.0017C203.484 65.5201 204.138 65.7793 204.913 65.7793C206.221 65.7793 207.079 65.1661 207.485 63.9397Z" fill="black"/>
<path d="M212.438 62.4793C212.438 63.4403 212.673 64.2242 213.143 64.8311C213.626 65.438 214.287 65.7414 215.125 65.7414C215.925 65.7414 216.567 65.4316 217.049 64.8121C217.532 64.1926 217.773 63.4023 217.773 62.4414C217.773 61.4931 217.538 60.7282 217.068 60.1466C216.598 59.565 215.957 59.2742 215.144 59.2742C214.331 59.2742 213.677 59.5713 213.182 60.1655C212.686 60.7598 212.438 61.5311 212.438 62.4793ZM217.792 65.8362V65.6845C217.551 66.1523 217.183 66.5443 216.687 66.8604C216.205 67.1638 215.627 67.3155 214.953 67.3155C213.645 67.3155 212.591 66.8604 211.791 65.95C211.003 65.027 210.609 63.8701 210.609 62.4793C210.609 61.1517 211.016 60.0265 211.829 59.1035C212.642 58.1678 213.683 57.7 214.953 57.7C215.703 57.7 216.313 57.8517 216.782 58.1552C217.252 58.446 217.576 58.8063 217.754 59.2362V53.338H219.526V65.3811C219.526 66.0006 219.558 66.5632 219.621 67.069H217.888C217.824 66.715 217.792 66.3041 217.792 65.8362Z" fill="black"/>
<path d="M224.344 67.069H222.572V57.9466H224.344V67.069ZM222.534 55.4052C222.293 55.1523 222.172 54.8489 222.172 54.4949C222.172 54.1408 222.293 53.8374 222.534 53.5845C222.788 53.3316 223.093 53.2052 223.449 53.2052C223.804 53.2052 224.109 53.3316 224.363 53.5845C224.617 53.8247 224.744 54.1282 224.744 54.4949C224.744 54.8489 224.617 55.1523 224.363 55.4052C224.109 55.6454 223.804 55.7655 223.449 55.7655C223.093 55.7655 222.788 55.6454 222.534 55.4052Z" fill="black"/>
<path d="M226.82 64.6224C226.82 63.8385 227.074 63.2127 227.582 62.7449C228.09 62.2644 228.763 61.9673 229.601 61.8535L232.078 61.4931C232.548 61.4299 232.783 61.2023 232.783 60.8104C232.783 60.3299 232.618 59.938 232.288 59.6345C231.958 59.3311 231.462 59.1793 230.802 59.1793C230.192 59.1793 229.709 59.35 229.354 59.6914C228.998 60.0201 228.788 60.4627 228.725 61.019L227.01 60.6207C227.099 59.7483 227.499 59.0403 228.211 58.4966C228.922 57.9403 229.773 57.6621 230.764 57.6621C232.059 57.6621 233.018 57.9782 233.64 58.6104C234.263 59.2299 234.574 60.0265 234.574 61V65.5707C234.574 66.1144 234.612 66.6138 234.688 67.069H232.936C232.872 66.6897 232.84 66.2788 232.84 65.8362C232.586 66.2408 232.212 66.5948 231.716 66.8983C231.234 67.2017 230.624 67.3535 229.887 67.3535C228.985 67.3535 228.249 67.088 227.677 66.5569C227.105 66.0132 226.82 65.3684 226.82 64.6224ZM230.135 65.8552C230.935 65.8552 231.576 65.6403 232.059 65.2104C232.542 64.7805 232.783 64.0977 232.783 63.1621V62.7449L229.982 63.1621C229.576 63.2253 229.252 63.3707 229.011 63.5983C228.769 63.8259 228.649 64.1357 228.649 64.5276C228.649 64.8816 228.782 65.1914 229.049 65.4569C229.328 65.7224 229.69 65.8552 230.135 65.8552Z" fill="black"/>
<path d="M191.418 91.0345H183.207V77.588H191.418V79.3138H185.074V83.4483H190.828V85.1931H185.074V89.3086H191.418V91.0345Z" fill="black"/>
<path d="M195.598 85.7621V91.0345H193.808V81.9121H195.56V83.2207C196.17 82.1713 197.11 81.6466 198.38 81.6466C199.434 81.6466 200.241 81.9816 200.8 82.6517C201.371 83.3219 201.657 84.188 201.657 85.25V91.0345H199.866V85.5535C199.866 84.0236 199.155 83.2586 197.732 83.2586C197.059 83.2586 196.532 83.4989 196.151 83.9793C195.783 84.4472 195.598 85.0414 195.598 85.7621Z" fill="black"/>
<path d="M203.839 91.5276L205.573 91.1293C205.636 91.7742 205.897 92.3052 206.354 92.7224C206.811 93.1523 207.383 93.3673 208.069 93.3673C209.936 93.3673 210.869 92.3811 210.869 90.4086V89.1C210.641 89.5426 210.279 89.9029 209.784 90.1811C209.301 90.4592 208.729 90.5983 208.069 90.5983C206.849 90.5983 205.84 90.1874 205.039 89.3655C204.252 88.5311 203.858 87.469 203.858 86.1793C203.858 84.9276 204.252 83.8782 205.039 83.0311C205.827 82.1713 206.837 81.7414 208.069 81.7414C209.466 81.7414 210.406 82.2219 210.889 83.1828V81.9121H212.66V90.3517C212.66 90.9586 212.578 91.5213 212.413 92.0397C212.26 92.5707 212.013 93.0575 211.67 93.5C211.327 93.9425 210.844 94.2902 210.222 94.5431C209.612 94.796 208.894 94.9224 208.069 94.9224C206.938 94.9224 205.979 94.6 205.192 93.9552C204.404 93.323 203.953 92.5138 203.839 91.5276ZM208.336 89.1C209.11 89.1 209.739 88.8345 210.222 88.3035C210.704 87.7598 210.946 87.0518 210.946 86.1793C210.946 85.3069 210.704 84.6052 210.222 84.0742C209.739 83.5305 209.11 83.2586 208.336 83.2586C207.548 83.2586 206.907 83.5242 206.411 84.0552C205.929 84.5862 205.687 85.2943 205.687 86.1793C205.687 87.077 205.922 87.7914 206.392 88.3224C206.875 88.8408 207.523 89.1 208.336 89.1Z" fill="black"/>
<path d="M217.293 91.0345H215.521V81.9121H217.293V91.0345ZM215.483 79.3707C215.241 79.1178 215.121 78.8144 215.121 78.4604C215.121 78.1063 215.241 77.8029 215.483 77.55C215.737 77.2972 216.041 77.1707 216.397 77.1707C216.753 77.1707 217.058 77.2972 217.312 77.55C217.566 77.7903 217.693 78.0937 217.693 78.4604C217.693 78.8144 217.566 79.1178 217.312 79.3707C217.058 79.6109 216.753 79.7311 216.397 79.7311C216.041 79.7311 215.737 79.6109 215.483 79.3707Z" fill="black"/>
<path d="M222.131 85.7621V91.0345H220.34V81.9121H222.092V83.2207C222.702 82.1713 223.642 81.6466 224.912 81.6466C225.966 81.6466 226.773 81.9816 227.332 82.6517C227.903 83.3219 228.189 84.188 228.189 85.25V91.0345H226.398V85.5535C226.398 84.0236 225.687 83.2586 224.264 83.2586C223.591 83.2586 223.064 83.4989 222.683 83.9793C222.315 84.4472 222.131 85.0414 222.131 85.7621Z" fill="black"/>
<path d="M232.2 85.5345H237.211C237.186 84.8518 236.957 84.2954 236.525 83.8655C236.093 83.423 235.484 83.2017 234.696 83.2017C233.985 83.2017 233.401 83.4357 232.943 83.9035C232.486 84.3586 232.238 84.9023 232.2 85.5345ZM237.478 87.9052L239.021 88.4362C238.754 89.2833 238.259 89.9788 237.535 90.5224C236.811 91.0535 235.935 91.319 234.906 91.319C233.623 91.319 232.53 90.8828 231.629 90.0104C230.74 89.1253 230.295 87.9368 230.295 86.4448C230.295 85.054 230.727 83.9035 231.591 82.9931C232.454 82.0828 233.483 81.6276 234.677 81.6276C236.062 81.6276 237.141 82.0638 237.916 82.9362C238.691 83.796 239.078 84.9529 239.078 86.4069C239.078 86.6345 239.065 86.8242 239.04 86.9759H232.143C232.156 87.7851 232.423 88.4489 232.943 88.9673C233.477 89.4857 234.131 89.7449 234.906 89.7449C236.214 89.7449 237.071 89.1316 237.478 87.9052Z" fill="black"/>
<path d="M242.527 85.5345H247.537C247.512 84.8518 247.283 84.2954 246.851 83.8655C246.42 83.423 245.81 83.2017 245.022 83.2017C244.311 83.2017 243.727 83.4357 243.27 83.9035C242.812 84.3586 242.565 84.9023 242.527 85.5345ZM247.804 87.9052L249.347 88.4362C249.081 89.2833 248.585 89.9788 247.861 90.5224C247.137 91.0535 246.261 91.319 245.232 91.319C243.949 91.319 242.857 90.8828 241.955 90.0104C241.066 89.1253 240.621 87.9368 240.621 86.4448C240.621 85.054 241.053 83.9035 241.917 82.9931C242.781 82.0828 243.809 81.6276 245.003 81.6276C246.388 81.6276 247.467 82.0638 248.242 82.9362C249.017 83.796 249.404 84.9529 249.404 86.4069C249.404 86.6345 249.392 86.8242 249.366 86.9759H242.469C242.482 87.7851 242.749 88.4489 243.27 88.9673C243.803 89.4857 244.457 89.7449 245.232 89.7449C246.54 89.7449 247.398 89.1316 247.804 87.9052Z" fill="black"/>
<path d="M256.778 81.8173V83.7138C256.511 83.6759 256.251 83.6569 255.996 83.6569C254.32 83.6569 253.482 84.5925 253.482 86.4638V91.0345H251.691V81.9121H253.443V83.5052C254.002 82.342 254.917 81.7604 256.187 81.7604C256.39 81.7604 256.587 81.7793 256.778 81.8173Z" fill="black"/>
<path d="M260.458 91.0345H258.686V81.9121H260.458V91.0345ZM258.648 79.3707C258.407 79.1178 258.286 78.8144 258.286 78.4604C258.286 78.1063 258.407 77.8029 258.648 77.55C258.902 77.2972 259.207 77.1707 259.563 77.1707C259.919 77.1707 260.223 77.2972 260.477 77.55C260.731 77.7903 260.858 78.0937 260.858 78.4604C260.858 78.8144 260.731 79.1178 260.477 79.3707C260.223 79.6109 259.919 79.7311 259.563 79.7311C259.207 79.7311 258.902 79.6109 258.648 79.3707Z" fill="black"/>
<path d="M265.296 85.7621V91.0345H263.505V81.9121H265.258V83.2207C265.868 82.1713 266.808 81.6466 268.078 81.6466C269.132 81.6466 269.939 81.9816 270.498 82.6517C271.069 83.3219 271.355 84.188 271.355 85.25V91.0345H269.564V85.5535C269.564 84.0236 268.853 83.2586 267.43 83.2586C266.757 83.2586 266.23 83.4989 265.849 83.9793C265.481 84.4472 265.296 85.0414 265.296 85.7621Z" fill="black"/>
<path d="M273.537 91.5276L275.271 91.1293C275.334 91.7742 275.595 92.3052 276.052 92.7224C276.509 93.1523 277.081 93.3673 277.767 93.3673C279.634 93.3673 280.567 92.3811 280.567 90.4086V89.1C280.339 89.5426 279.977 89.9029 279.481 90.1811C278.999 90.4592 278.427 90.5983 277.767 90.5983C276.547 90.5983 275.538 90.1874 274.737 89.3655C273.95 88.5311 273.556 87.469 273.556 86.1793C273.556 84.9276 273.95 83.8782 274.737 83.0311C275.525 82.1713 276.535 81.7414 277.767 81.7414C279.164 81.7414 280.104 82.2219 280.586 83.1828V81.9121H282.358V90.3517C282.358 90.9586 282.276 91.5213 282.111 92.0397C281.958 92.5707 281.711 93.0575 281.368 93.5C281.025 93.9425 280.542 94.2902 279.92 94.5431C279.31 94.796 278.592 94.9224 277.767 94.9224C276.636 94.9224 275.677 94.6 274.89 93.9552C274.102 93.323 273.651 92.5138 273.537 91.5276ZM278.033 89.1C278.808 89.1 279.437 88.8345 279.92 88.3035C280.402 87.7598 280.644 87.0518 280.644 86.1793C280.644 85.3069 280.402 84.6052 279.92 84.0742C279.437 83.5305 278.808 83.2586 278.033 83.2586C277.246 83.2586 276.604 83.5242 276.109 84.0552C275.626 84.5862 275.385 85.2943 275.385 86.1793C275.385 87.077 275.62 87.7914 276.09 88.3224C276.573 88.8408 277.22 89.1 278.033 89.1Z" fill="black"/>
<path d="M185.112 115H183.207V101.553H185.112V115Z" fill="black"/>
<path d="M190.147 109.728V115H188.356V105.878H190.109V107.186C190.719 106.137 191.658 105.612 192.929 105.612C193.983 105.612 194.789 105.947 195.348 106.617C195.92 107.287 196.206 108.153 196.206 109.216V115H194.415V109.519C194.415 107.989 193.703 107.224 192.281 107.224C191.608 107.224 191.081 107.464 190.699 107.945C190.331 108.413 190.147 109.007 190.147 109.728Z" fill="black"/>
<path d="M198.197 112.629L199.817 112.06C199.88 112.553 200.096 112.964 200.464 113.293C200.833 113.609 201.328 113.767 201.95 113.767C202.433 113.767 202.814 113.653 203.094 113.426C203.373 113.186 203.513 112.895 203.513 112.553C203.513 111.947 203.119 111.555 202.331 111.378L200.769 111.036C200.058 110.884 199.499 110.581 199.093 110.126C198.686 109.671 198.483 109.121 198.483 108.476C198.483 107.692 198.8 107.016 199.435 106.447C200.083 105.878 200.852 105.593 201.741 105.593C202.325 105.593 202.846 105.682 203.303 105.859C203.76 106.023 204.116 106.244 204.37 106.522C204.624 106.801 204.815 107.06 204.942 107.3C205.069 107.54 205.164 107.787 205.227 108.04L203.646 108.628C203.621 108.476 203.576 108.33 203.513 108.191C203.449 108.04 203.348 107.875 203.208 107.698C203.081 107.521 202.89 107.382 202.636 107.281C202.382 107.167 202.084 107.11 201.741 107.11C201.296 107.11 200.928 107.23 200.636 107.471C200.356 107.711 200.217 107.995 200.217 108.324C200.217 108.906 200.566 109.272 201.265 109.424L202.751 109.747C203.564 109.924 204.186 110.252 204.618 110.733C205.062 111.201 205.285 111.776 205.285 112.459C205.285 113.179 204.986 113.83 204.389 114.412C203.805 114.994 202.986 115.285 201.931 115.285C200.801 115.285 199.918 115.006 199.283 114.45C198.648 113.881 198.286 113.274 198.197 112.629Z" fill="black"/>
<path d="M210.07 102.995V105.878H212.051V107.49H210.07V112.231C210.07 112.661 210.165 112.977 210.355 113.179C210.559 113.382 210.889 113.483 211.346 113.483C211.613 113.483 211.848 113.457 212.051 113.407V114.924C211.746 115.038 211.34 115.095 210.832 115.095C210.044 115.095 209.422 114.867 208.965 114.412C208.507 113.957 208.279 113.318 208.279 112.497V107.49H206.526V105.878H207.021C207.491 105.878 207.84 105.751 208.069 105.498C208.31 105.233 208.431 104.891 208.431 104.474V102.995H210.07Z" fill="black"/>
<path d="M216.213 115H214.442V105.878H216.213V115ZM214.403 103.336C214.162 103.083 214.041 102.78 214.041 102.426C214.041 102.072 214.162 101.768 214.403 101.516C214.657 101.263 214.962 101.136 215.318 101.136C215.674 101.136 215.978 101.263 216.232 101.516C216.487 101.756 216.614 102.059 216.614 102.426C216.614 102.78 216.487 103.083 216.232 103.336C215.978 103.576 215.674 103.697 215.318 103.697C214.962 103.697 214.657 103.576 214.403 103.336Z" fill="black"/>
<path d="M221.661 102.995V105.878H223.643V107.49H221.661V112.231C221.661 112.661 221.756 112.977 221.947 113.179C222.15 113.382 222.48 113.483 222.938 113.483C223.204 113.483 223.439 113.457 223.643 113.407V114.924C223.338 115.038 222.931 115.095 222.423 115.095C221.636 115.095 221.013 114.867 220.556 114.412C220.099 113.957 219.87 113.318 219.87 112.497V107.49H218.117V105.878H218.613C219.083 105.878 219.432 105.751 219.661 105.498C219.902 105.233 220.023 104.891 220.023 104.474V102.995H221.661Z" fill="black"/>
<path d="M232.073 113.9C231.831 114.355 231.463 114.703 230.968 114.943C230.472 115.171 229.939 115.285 229.367 115.285C228.326 115.285 227.494 114.943 226.871 114.26C226.249 113.565 225.938 112.686 225.938 111.624V105.878H227.729V111.359C227.729 112.041 227.894 112.604 228.224 113.047C228.567 113.489 229.094 113.71 229.805 113.71C230.517 113.71 231.057 113.502 231.425 113.085C231.793 112.655 231.977 112.086 231.977 111.378V105.878H233.768V113.312C233.768 113.906 233.8 114.469 233.864 115H232.149C232.098 114.722 232.073 114.355 232.073 113.9Z" fill="black"/>
<path d="M239.225 102.995V105.878H241.207V107.49H239.225V112.231C239.225 112.661 239.32 112.977 239.511 113.179C239.714 113.382 240.044 113.483 240.502 113.483C240.768 113.483 241.003 113.457 241.207 113.407V114.924C240.902 115.038 240.495 115.095 239.987 115.095C239.2 115.095 238.577 114.867 238.12 114.412C237.663 113.957 237.434 113.318 237.434 112.497V107.49H235.681V105.878H236.177C236.647 105.878 236.996 105.751 237.225 105.498C237.466 105.233 237.587 104.891 237.587 104.474V102.995H239.225Z" fill="black"/>
<path d="M244.666 109.5H249.677C249.652 108.817 249.423 108.261 248.991 107.831C248.559 107.389 247.95 107.167 247.162 107.167C246.451 107.167 245.867 107.401 245.409 107.869C244.952 108.324 244.704 108.868 244.666 109.5ZM249.944 111.871L251.487 112.402C251.22 113.249 250.725 113.944 250.001 114.488C249.277 115.019 248.401 115.285 247.372 115.285C246.089 115.285 244.996 114.848 244.095 113.976C243.206 113.091 242.761 111.902 242.761 110.41C242.761 109.02 243.193 107.869 244.057 106.959C244.92 106.048 245.949 105.593 247.143 105.593C248.528 105.593 249.607 106.029 250.382 106.902C251.157 107.762 251.544 108.918 251.544 110.372C251.544 110.6 251.531 110.79 251.506 110.941H244.609C244.622 111.751 244.889 112.414 245.409 112.933C245.943 113.451 246.597 113.71 247.372 113.71C248.68 113.71 249.537 113.097 249.944 111.871Z" fill="black"/>
<path d="M128.501 15.5144L132.026 5.51953H134.808L129.797 18.9661H127.091L122.1 5.51953H124.977L128.501 15.5144Z" fill="black"/>
<path d="M139.162 16.5385H141.257C142.439 16.5385 143.41 16.1718 144.172 15.4385C144.934 14.7052 145.315 13.6431 145.315 12.2523C145.315 10.8615 144.934 9.79942 144.172 9.06608C143.41 8.32011 142.445 7.94712 141.276 7.94712H139.162V16.5385ZM141.353 18.9661H136.532V5.51953H141.372C143.34 5.51953 144.941 6.12011 146.173 7.32126C147.418 8.5224 148.04 10.1661 148.04 12.2523C148.04 14.3259 147.418 15.9632 146.173 17.1644C144.928 18.3655 143.321 18.9661 141.353 18.9661Z" fill="black"/>
</svg>
