<?xml version="1.0" encoding="utf-8"?>
<!-- Generator: Adobe Illustrator 26.0.3, SVG Export Plug-In . SVG Version: 6.00 Build 0)  -->
<svg version="1.1" id="Layer_1" xmlns="http://www.w3.org/2000/svg" xmlns:xlink="http://www.w3.org/1999/xlink" x="0px" y="0px"
	 viewBox="0 0 1280 1280" style="enable-background:new 0 0 1280 1280;" xml:space="preserve">
<g transform="translate(0.000000,1280.000000) scale(0.100000,-0.100000)">
	<path d="M9.8,313.3c41-195,242-335,445-309c51,6,811,383,6125,3040c5801,2901,6069,3036,6110,3082c54,61,99,157,106,231
		c13,118-40,258-125,334c-35,31-1508,771-6106,3070c-5849,2924-6062,3029-6126,3035c-173,15-326-76-403-237c-27-59-30-74-30-160
		c1-79,5-104,26-150c13-30,894-1359,1956-2953l1932-2897l-1932-2897c-1062-1594-1942-2923-1956-2953C4.8,488.3-5.2,381.3,9.8,313.3z
		"/>
</g>
</svg>
