<?xml version="1.0" encoding="utf-8"?>
<!-- Generator: Adobe Illustrator 26.0.3, SVG Export Plug-In . SVG Version: 6.00 Build 0)  -->
<svg version="1.1" id="Layer_1" xmlns="http://www.w3.org/2000/svg" xmlns:xlink="http://www.w3.org/1999/xlink" x="0px" y="0px"
	 viewBox="0 0 1280 1280" style="enable-background:new 0 0 1280 1280;" xml:space="preserve">
<g transform="translate(0.000000,1280.000000) scale(0.100000,-0.100000)">
	<path d="M12486.5,9.1c195,41,335,242,309,445c-6,51-383,811-3040,6125c-2901,5801-3036,6069-3082,6110c-61,54-157,99-231,106
		c-118,13-258-40-334-125c-31-35-771-1508-3070-6106c-2924-5849-3029-6062-3035-6126c-15-173,76-326,237-403c59-27,74-30,160-30
		c79,1,104,5,150,26c30,13,1359,894,2953,1956l2897,1932l2897-1932c1594-1062,2923-1942,2953-1956
		C12311.5,4.1,12418.5-5.9,12486.5,9.1z"/>
</g>
</svg>
